<?xml version="1.0" encoding="UTF-8" standalone="no"?>
<!DOCTYPE svg PUBLIC "-//W3C//DTD SVG 1.1//EN" "http://www.w3.org/Graphics/SVG/1.1/DTD/svg11.dtd">
<svg xmlns="http://www.w3.org/2000/svg" version="1.1" viewBox="0.00 0.00 1023.00 1023.00">
<path fill="#ffffff" d="
  M 548.67 363.27
  Q 549.03 363.06 549.31 362.74
  Q 665.33 230.12 781.58 97.22
  A 2.14 2.14 0.0 0 1 783.19 96.49
  L 922.99 96.49
  Q 924.07 96.49 923.36 97.31
  Q 880.45 146.09 836.56 196.55
  Q 809.02 228.22 767.66 277.67
  Q 566.46 518.24 566.41 518.29
  C 564.86 519.76 564.49 521.78 563.85 523.74
  Q 563.59 524.54 563.23 523.78
  Q 558.16 513.24 553.81 507.49
  Q 429.06 342.58 304.23 177.49
  A 1.57 1.57 0.0 0 0 302.99 176.88
  Q 262.49 176.91 220.68 176.87
  A 0.92 0.89 11.1 0 0 219.84 177.42
  Q 219.81 177.49 219.86 177.54
  Q 370.64 374.62 520.93 571.15
  A 0.57 0.56 -47.2 0 1 520.95 571.79
  Q 518.44 575.69 515.45 578.98
  Q 512.88 581.81 510.81 584.26
  Q 399.21 715.87 342.25 782.74
  Q 310.50 820.02 282.84 853.04
  C 279.98 856.44 277.56 859.85 274.77 863.04
  Q 244.53 897.55 214.44 931.99
  A 1.63 1.61 20.6 0 1 213.23 932.53
  L 72.91 932.52
  A 0.38 0.38 0.0 0 1 72.63 931.89
  L 402.81 554.50
  Q 403.50 553.72 402.87 552.89
  L 54.05 96.81
  A 0.20 0.20 0.0 0 1 54.21 96.49
  L 346.02 96.49
  A 0.85 0.83 -17.8 0 1 346.70 96.83
  L 548.14 363.16
  A 0.41 0.41 0.0 0 0 548.67 363.27
  Z"
/>
</svg>
